<svg width="1173" height="283" viewBox="0 0 1173 283" fill="none" xmlns="http://www.w3.org/2000/svg">
<path d="M14.3414 215L49.0614 50.36H0.901407L8.46141 15.08H146.501L138.941 50.36H90.7814L56.0614 215H14.3414ZM159.71 217.8C152.43 217.8 145.43 216.027 138.71 212.48C132.176 208.747 126.856 202.867 122.75 194.84C118.643 186.627 116.59 175.8 116.59 162.36C116.59 149.853 118.27 137.533 121.63 125.4C124.99 113.267 129.75 102.253 135.91 92.36C142.07 82.28 149.443 74.2533 158.03 68.28C166.803 62.3067 176.603 59.32 187.43 59.32C197.136 59.32 204.976 61.3733 210.95 65.48C217.11 69.5867 221.87 75 225.23 81.72H226.35L234.19 62.12H265.83L233.35 215H202.55L204.51 195.12H203.39C197.976 201.84 191.723 207.347 184.63 211.64C177.723 215.747 169.416 217.8 159.71 217.8ZM175.95 184.48C181.55 184.48 186.776 182.24 191.63 177.76C196.483 173.28 200.59 167.493 203.95 160.4C207.496 153.307 210.016 145.84 211.51 138C212.816 131.28 213.47 123.627 213.47 115.04C213.47 108.507 211.79 103.187 208.43 99.08C205.07 94.7867 200.403 92.64 194.43 92.64C189.39 92.64 184.63 94.6933 180.15 98.8C175.856 102.72 172.03 107.947 168.67 114.48C165.496 121.013 162.976 128.293 161.11 136.32C159.243 144.347 158.31 152.373 158.31 160.4C158.31 176.453 164.19 184.48 175.95 184.48ZM261.28 282.2L308.04 62.12H339.4L337.16 85.36H338.28C343.133 78.8267 349.106 72.8533 356.2 67.44C363.293 62.0267 371.786 59.32 381.68 59.32C389.146 59.32 396.146 61.1867 402.68 64.92C409.213 68.4667 414.533 74.3467 418.64 82.56C422.746 90.5867 424.8 101.413 424.8 115.04C424.8 127.36 423.12 139.68 419.76 152C416.4 164.133 411.64 175.147 405.48 185.04C399.32 194.933 391.853 202.867 383.08 208.84C374.493 214.813 364.786 217.8 353.96 217.8C344.626 217.8 337.44 215.653 332.4 211.36C327.36 207.067 322.973 201.747 319.24 195.4H318.12C317.56 202.867 316.813 209.68 315.88 215.84C314.946 222 313.733 228.627 312.24 235.72L302.44 282.2H261.28ZM346.96 184.48C352 184.48 356.666 182.52 360.96 178.6C365.44 174.493 369.266 169.173 372.44 162.64C375.8 156.107 378.413 148.827 380.28 140.8C382.146 132.773 383.08 124.747 383.08 116.72C383.08 100.667 377.106 92.64 365.16 92.64C358.44 92.64 352.746 95.0667 348.08 99.92C343.413 104.773 339.586 110.84 336.6 118.12C333.613 125.4 331.373 132.867 329.88 140.52C328.573 148.173 327.92 154.8 327.92 160.4C327.92 167.68 329.6 173.56 332.96 178.04C336.506 182.333 341.173 184.48 346.96 184.48ZM430.883 282.2C421.363 282.2 413.43 281.08 407.083 278.84V245.8C412.683 247.667 417.91 248.6 422.763 248.6C428.363 248.6 433.216 246.733 437.323 243C441.616 239.267 444.603 233.387 446.283 225.36L474.283 93.48H451.883L456.083 73.6L481.003 62.12L483.523 50.64C487.63 32.16 494.256 19.28 503.403 12C512.736 4.53332 524.87 0.799987 539.803 0.799987C546.15 0.799987 551.936 1.45332 557.163 2.76C562.576 3.87999 567.523 5.46666 572.003 7.51998L561.083 38.04C558.47 36.92 555.67 35.9867 552.683 35.24C549.883 34.3067 546.616 33.84 542.883 33.84C537.656 33.84 533.456 35.7067 530.283 39.44C527.11 42.9867 524.963 47.7467 523.843 53.72L522.163 62.12H552.123L545.403 93.48H515.443L486.043 231.52C484.176 240.853 481.096 249.347 476.803 257C472.51 264.653 466.63 270.72 459.163 275.2C451.883 279.867 442.456 282.2 430.883 282.2ZM595.536 217.8C582.469 217.8 572.669 213.88 566.136 206.04C559.789 198.013 556.616 187.28 556.616 173.84C556.616 170.48 556.896 166.187 557.456 160.96C558.016 155.547 558.856 150.133 559.976 144.72L577.336 62.12H618.496L599.736 151.44C598.243 157.973 597.496 163.387 597.496 167.68C597.496 178.88 602.443 184.48 612.336 184.48C618.683 184.48 624.283 181.867 629.136 176.64C634.176 171.227 638.563 164.04 642.296 155.08C646.029 146.12 649.016 136.227 651.256 125.4L664.696 62.12H705.856L673.376 215H642.016L644.816 186.72H643.416C637.629 195.867 630.816 203.333 622.976 209.12C615.323 214.907 606.176 217.8 595.536 217.8ZM715.52 215L748 62.12H779.36L776.56 90.4H777.68C783.654 81.2533 790.467 73.7867 798.12 68C805.96 62.2133 815.2 59.32 825.84 59.32C839.094 59.32 848.987 63.3333 855.52 71.36C862.054 79.2 865.32 89.84 865.32 103.28C865.32 110 864.294 118.213 862.24 127.92L844.04 215H802.88L821.64 125.68C823.134 119.147 823.88 113.733 823.88 109.44C823.88 98.24 818.934 92.64 809.04 92.64C802.88 92.64 797.28 95.3467 792.24 100.76C787.2 105.987 782.814 113.08 779.08 122.04C775.534 131 772.547 140.893 770.12 151.72L756.68 215H715.52ZM934.905 217.8C927.625 217.8 920.625 216.027 913.905 212.48C907.372 208.747 902.052 202.867 897.945 194.84C893.838 186.627 891.785 175.707 891.785 162.08C891.785 149.76 893.465 137.533 896.825 125.4C900.185 113.08 904.945 101.973 911.105 92.08C917.265 82.1867 924.638 74.2533 933.225 68.28C941.998 62.3067 951.798 59.32 962.625 59.32C971.772 59.32 978.958 61.4667 984.185 65.76C989.412 70.0533 993.798 75.3733 997.345 81.72H998.465C998.465 81.16 998.558 79.2 998.745 75.84C999.118 72.2933 999.585 68.28 1000.14 63.8C1000.7 59.1333 1001.36 54.9333 1002.1 51.2L1012.46 2.19999H1053.62L1008.54 215H977.185L979.705 195.12H978.585C973.172 201.84 967.012 207.347 960.105 211.64C953.198 215.747 944.798 217.8 934.905 217.8ZM952.265 184.48C958.798 184.48 964.305 182.053 968.785 177.2C973.452 172.16 977.185 166 979.985 158.72C982.972 151.253 985.118 143.787 986.425 136.32C987.918 128.667 988.665 122.133 988.665 116.72C988.665 109.44 986.985 103.653 983.625 99.36C980.265 94.88 975.598 92.64 969.625 92.64C964.585 92.64 959.825 94.6933 955.345 98.8C951.052 102.72 947.225 107.947 943.865 114.48C940.692 121.013 938.172 128.293 936.305 136.32C934.438 144.347 933.505 152.373 933.505 160.4C933.505 176.453 939.758 184.48 952.265 184.48ZM1094.71 217.8C1085.01 217.8 1076.51 217.053 1069.23 215.56C1061.95 214.253 1055.14 212.013 1048.79 208.84V174.96C1055.7 178.88 1062.79 181.96 1070.07 184.2C1077.35 186.253 1084.82 187.28 1092.47 187.28C1099.01 187.28 1104.79 185.973 1109.83 183.36C1114.87 180.56 1117.39 176.36 1117.39 170.76C1117.39 167.027 1115.9 163.667 1112.91 160.68C1109.93 157.693 1103.77 153.587 1094.43 148.36C1084.91 142.947 1077.54 137.347 1072.31 131.56C1067.27 125.587 1064.75 117.747 1064.75 108.04C1064.75 92.1733 1069.89 80.1333 1080.15 71.92C1090.61 63.52 1104.89 59.32 1122.99 59.32C1131.77 59.32 1140.26 60.3467 1148.47 62.4C1156.69 64.2667 1164.71 67.5333 1172.55 72.2L1159.11 101.6C1153.7 98.4267 1147.91 95.72 1141.75 93.48C1135.78 91.24 1129.81 90.12 1123.83 90.12C1119.35 90.12 1115.34 91.24 1111.79 93.48C1108.25 95.5333 1106.47 98.7067 1106.47 103C1106.47 106.547 1107.97 109.72 1110.95 112.52C1113.94 115.133 1119.35 118.493 1127.19 122.6C1136.53 127.267 1144.18 132.867 1150.15 139.4C1156.13 145.747 1159.11 154.147 1159.11 164.6C1159.11 182.147 1153.23 195.4 1141.47 204.36C1129.9 213.32 1114.31 217.8 1094.71 217.8Z" fill="white"/>
</svg>
