<svg width="200" height="57" viewBox="0 0 200 57" fill="none" xmlns="http://www.w3.org/2000/svg">
<g filter="url(#filter0_dd)">
<path d="M8.42508 38L13.8811 12.128H6.31308L7.50108 6.584H29.1931L28.0051 12.128H20.4371L14.9811 38H8.42508ZM31.2686 38.44C30.1246 38.44 29.0246 38.1613 27.9686 37.604C26.942 37.0173 26.106 36.0933 25.4606 34.832C24.8153 33.5413 24.4926 31.84 24.4926 29.728C24.4926 27.7627 24.7566 25.8267 25.2846 23.92C25.8126 22.0133 26.5606 20.2827 27.5286 18.728C28.4966 17.144 29.6553 15.8827 31.0046 14.944C32.3833 14.0053 33.9233 13.536 35.6246 13.536C37.15 13.536 38.382 13.8587 39.3206 14.504C40.2886 15.1493 41.0366 16 41.5646 17.056H41.7406L42.9726 13.976H47.9446L42.8406 38H38.0006L38.3086 34.876H38.1326C37.282 35.932 36.2993 36.7973 35.1846 37.472C34.0993 38.1173 32.794 38.44 31.2686 38.44ZM33.8206 33.204C34.7006 33.204 35.522 32.852 36.2846 32.148C37.0473 31.444 37.6926 30.5347 38.2206 29.42C38.778 28.3053 39.174 27.132 39.4086 25.9C39.614 24.844 39.7166 23.6413 39.7166 22.292C39.7166 21.2653 39.4526 20.4293 38.9246 19.784C38.3966 19.1093 37.6633 18.772 36.7246 18.772C35.9326 18.772 35.1846 19.0947 34.4806 19.74C33.806 20.356 33.2046 21.1773 32.6766 22.204C32.178 23.2307 31.782 24.3747 31.4886 25.636C31.1953 26.8973 31.0486 28.1587 31.0486 29.42C31.0486 31.9427 31.9726 33.204 33.8206 33.204ZM47.2296 48.56L54.5776 13.976H59.5056L59.1536 17.628H59.3296C60.0923 16.6013 61.031 15.6627 62.1456 14.812C63.2603 13.9613 64.595 13.536 66.1496 13.536C67.323 13.536 68.423 13.8293 69.4496 14.416C70.4763 14.9733 71.3123 15.8973 71.9576 17.188C72.603 18.4493 72.9256 20.1507 72.9256 22.292C72.9256 24.228 72.6616 26.164 72.1336 28.1C71.6056 30.0067 70.8576 31.7373 69.8896 33.292C68.9216 34.8467 67.7483 36.0933 66.3696 37.032C65.0203 37.9707 63.495 38.44 61.7936 38.44C60.327 38.44 59.1976 38.1027 58.4056 37.428C57.6136 36.7533 56.9243 35.9173 56.3376 34.92H56.1616C56.0736 36.0933 55.9563 37.164 55.8096 38.132C55.663 39.1 55.4723 40.1413 55.2376 41.256L53.6976 48.56H47.2296ZM60.6936 33.204C61.4856 33.204 62.219 32.896 62.8936 32.28C63.5976 31.6347 64.199 30.7987 64.6976 29.772C65.2256 28.7453 65.6363 27.6013 65.9296 26.34C66.223 25.0787 66.3696 23.8173 66.3696 22.556C66.3696 20.0333 65.431 18.772 63.5536 18.772C62.4976 18.772 61.603 19.1533 60.8696 19.916C60.1363 20.6787 59.535 21.632 59.0656 22.776C58.5963 23.92 58.2443 25.0933 58.0096 26.296C57.8043 27.4987 57.7016 28.54 57.7016 29.42C57.7016 30.564 57.9656 31.488 58.4936 32.192C59.051 32.8667 59.7843 33.204 60.6936 33.204ZM73.8816 48.56C72.3856 48.56 71.1389 48.384 70.1416 48.032V42.84C71.0216 43.1333 71.8429 43.28 72.6056 43.28C73.4856 43.28 74.2483 42.9867 74.8936 42.4C75.5683 41.8133 76.0376 40.8893 76.3016 39.628L80.7016 18.904H77.1816L77.8416 15.78L81.7576 13.976L82.1536 12.172C82.7989 9.268 83.8403 7.244 85.2776 6.1C86.7443 4.92666 88.6509 4.34 90.9976 4.34C91.9949 4.34 92.9043 4.44267 93.7256 4.648C94.5763 4.824 95.3536 5.07333 96.0576 5.396L94.3416 10.192C93.9309 10.016 93.4909 9.86933 93.0216 9.752C92.5816 9.60533 92.0683 9.532 91.4816 9.532C90.6603 9.532 90.0003 9.82533 89.5016 10.412C89.0029 10.9693 88.6656 11.7173 88.4896 12.656L88.2256 13.976H92.9336L91.8776 18.904H87.1696L82.5496 40.596C82.2563 42.0627 81.7723 43.3973 81.0976 44.6C80.4229 45.8027 79.4989 46.756 78.3256 47.46C77.1816 48.1933 75.7003 48.56 73.8816 48.56ZM99.7557 38.44C97.7023 38.44 96.1623 37.824 95.1357 36.592C94.1383 35.3307 93.6397 33.644 93.6397 31.532C93.6397 31.004 93.6837 30.3293 93.7717 29.508C93.8597 28.6573 93.9917 27.8067 94.1677 26.956L96.8957 13.976H103.364L100.416 28.012C100.181 29.0387 100.064 29.8893 100.064 30.564C100.064 32.324 100.841 33.204 102.396 33.204C103.393 33.204 104.273 32.7933 105.036 31.972C105.828 31.1213 106.517 29.992 107.104 28.584C107.69 27.176 108.16 25.6213 108.512 23.92L110.624 13.976H117.092L111.988 38H107.06L107.5 33.556H107.28C106.37 34.9933 105.3 36.1667 104.068 37.076C102.865 37.9853 101.428 38.44 99.7557 38.44ZM118.61 38L123.714 13.976H128.642L128.202 18.42H128.378C129.317 16.9827 130.388 15.8093 131.59 14.9C132.822 13.9907 134.274 13.536 135.946 13.536C138.029 13.536 139.584 14.1667 140.61 15.428C141.637 16.66 142.15 18.332 142.15 20.444C142.15 21.5 141.989 22.7907 141.666 24.316L138.806 38H132.338L135.286 23.964C135.521 22.9373 135.638 22.0867 135.638 21.412C135.638 19.652 134.861 18.772 133.306 18.772C132.338 18.772 131.458 19.1973 130.666 20.048C129.874 20.8693 129.185 21.984 128.598 23.392C128.041 24.8 127.572 26.3547 127.19 28.056L125.078 38H118.61ZM153.085 38.44C151.941 38.44 150.841 38.1613 149.785 37.604C148.758 37.0173 147.922 36.0933 147.277 34.832C146.632 33.5413 146.309 31.8253 146.309 29.684C146.309 27.748 146.573 25.8267 147.101 23.92C147.629 21.984 148.377 20.2387 149.345 18.684C150.313 17.1293 151.472 15.8827 152.821 14.944C154.2 14.0053 155.74 13.536 157.441 13.536C158.878 13.536 160.008 13.8733 160.829 14.548C161.65 15.2227 162.34 16.0587 162.897 17.056H163.073C163.073 16.968 163.088 16.66 163.117 16.132C163.176 15.5747 163.249 14.944 163.337 14.24C163.425 13.5067 163.528 12.8467 163.645 12.26L165.273 4.56H171.741L164.657 38H159.729L160.125 34.876H159.949C159.098 35.932 158.13 36.7973 157.045 37.472C155.96 38.1173 154.64 38.44 153.085 38.44ZM155.813 33.204C156.84 33.204 157.705 32.8227 158.409 32.06C159.142 31.268 159.729 30.3 160.169 29.156C160.638 27.9827 160.976 26.8093 161.181 25.636C161.416 24.4333 161.533 23.4067 161.533 22.556C161.533 21.412 161.269 20.5027 160.741 19.828C160.213 19.124 159.48 18.772 158.541 18.772C157.749 18.772 157.001 19.0947 156.297 19.74C155.622 20.356 155.021 21.1773 154.493 22.204C153.994 23.2307 153.598 24.3747 153.305 25.636C153.012 26.8973 152.865 28.1587 152.865 29.42C152.865 31.9427 153.848 33.204 155.813 33.204ZM178.198 38.44C176.673 38.44 175.338 38.3227 174.194 38.088C173.05 37.8827 171.979 37.5307 170.982 37.032V31.708C172.067 32.324 173.182 32.808 174.326 33.16C175.47 33.4827 176.643 33.644 177.846 33.644C178.873 33.644 179.782 33.4387 180.574 33.028C181.366 32.588 181.762 31.928 181.762 31.048C181.762 30.4613 181.527 29.9333 181.058 29.464C180.589 28.9947 179.621 28.3493 178.154 27.528C176.658 26.6773 175.499 25.7973 174.678 24.888C173.886 23.9493 173.49 22.7173 173.49 21.192C173.49 18.6987 174.297 16.8067 175.91 15.516C177.553 14.196 179.797 13.536 182.642 13.536C184.021 13.536 185.355 13.6973 186.646 14.02C187.937 14.3133 189.198 14.8267 190.43 15.56L188.318 20.18C187.467 19.6813 186.558 19.256 185.59 18.904C184.651 18.552 183.713 18.376 182.774 18.376C182.07 18.376 181.439 18.552 180.882 18.904C180.325 19.2267 180.046 19.7253 180.046 20.4C180.046 20.9573 180.281 21.456 180.75 21.896C181.219 22.3067 182.07 22.8347 183.302 23.48C184.769 24.2133 185.971 25.0933 186.91 26.12C187.849 27.1173 188.318 28.4373 188.318 30.08C188.318 32.8373 187.394 34.92 185.546 36.328C183.727 37.736 181.278 38.44 178.198 38.44Z" fill="white"/>
</g>
<defs>
<filter id="filter0_dd" x="0.31311" y="0.339996" width="199.117" height="56.22" filterUnits="userSpaceOnUse" color-interpolation-filters="sRGB">
<feFlood flood-opacity="0" result="BackgroundImageFix"/>
<feColorMatrix in="SourceAlpha" type="matrix" values="0 0 0 0 0 0 0 0 0 0 0 0 0 0 0 0 0 0 127 0"/>
<feOffset dx="5"/>
<feGaussianBlur stdDeviation="2"/>
<feColorMatrix type="matrix" values="0 0 0 0 0.282353 0 0 0 0 0.662745 0 0 0 0 1 0 0 0 1 0"/>
<feBlend mode="normal" in2="BackgroundImageFix" result="effect1_dropShadow"/>
<feColorMatrix in="SourceAlpha" type="matrix" values="0 0 0 0 0 0 0 0 0 0 0 0 0 0 0 0 0 0 127 0"/>
<feOffset dx="-2" dy="4"/>
<feGaussianBlur stdDeviation="2"/>
<feColorMatrix type="matrix" values="0 0 0 0 0 0 0 0 0 0 0 0 0 0 0 0 0 0 0.25 0"/>
<feBlend mode="normal" in2="effect1_dropShadow" result="effect2_dropShadow"/>
<feBlend mode="normal" in="SourceGraphic" in2="effect2_dropShadow" result="shape"/>
</filter>
</defs>
</svg>
