<svg width="175" height="158" viewBox="0 0 619 158" fill="none" xmlns="http://www.w3.org/2000/svg">
<g filter="url(#filter0_dd)">
<path d="M13.6184 115L31.4744 30.328H6.70644L10.5944 12.184H81.5864L77.6984 30.328H52.9304L35.0744 115H13.6184ZM88.3792 116.44C84.6352 116.44 81.0352 115.528 77.5792 113.704C74.2192 111.784 71.4832 108.76 69.3712 104.632C67.2592 100.408 66.2032 94.84 66.2032 87.928C66.2032 81.496 67.0672 75.16 68.7952 68.92C70.5232 62.68 72.9712 57.016 76.1392 51.928C79.3072 46.744 83.0992 42.616 87.5152 39.544C92.0272 36.472 97.0672 34.936 102.635 34.936C107.627 34.936 111.659 35.992 114.731 38.104C117.899 40.216 120.347 43 122.075 46.456H122.651L126.683 36.376H142.955L126.251 115H110.411L111.419 104.776H110.843C108.059 108.232 104.843 111.064 101.195 113.272C97.6432 115.384 93.3712 116.44 88.3792 116.44ZM96.7312 99.304C99.6112 99.304 102.299 98.152 104.795 95.848C107.291 93.544 109.403 90.568 111.131 86.92C112.955 83.272 114.251 79.432 115.019 75.4C115.691 71.944 116.027 68.008 116.027 63.592C116.027 60.232 115.163 57.496 113.435 55.384C111.707 53.176 109.307 52.072 106.235 52.072C103.643 52.072 101.195 53.128 98.8912 55.24C96.6832 57.256 94.7152 59.944 92.9872 63.304C91.3552 66.664 90.0592 70.408 89.0992 74.536C88.1392 78.664 87.6592 82.792 87.6592 86.92C87.6592 95.176 90.6832 99.304 96.7312 99.304ZM140.615 149.56L164.663 36.376H180.791L179.639 48.328H180.215C182.711 44.968 185.783 41.896 189.431 39.112C193.079 36.328 197.447 34.936 202.535 34.936C206.375 34.936 209.975 35.896 213.335 37.816C216.695 39.64 219.431 42.664 221.543 46.888C223.655 51.016 224.711 56.584 224.711 63.592C224.711 69.928 223.847 76.264 222.119 82.6C220.391 88.84 217.943 94.504 214.775 99.592C211.607 104.68 207.767 108.76 203.255 111.832C198.839 114.904 193.847 116.44 188.279 116.44C183.479 116.44 179.783 115.336 177.191 113.128C174.599 110.92 172.343 108.184 170.423 104.92H169.847C169.559 108.76 169.175 112.264 168.695 115.432C168.215 118.6 167.591 122.008 166.823 125.656L161.783 149.56H140.615ZM184.679 99.304C187.271 99.304 189.671 98.296 191.879 96.28C194.183 94.168 196.151 91.432 197.783 88.072C199.511 84.712 200.855 80.968 201.815 76.84C202.775 72.712 203.255 68.584 203.255 64.456C203.255 56.2 200.183 52.072 194.039 52.072C190.583 52.072 187.655 53.32 185.255 55.816C182.855 58.312 180.887 61.432 179.351 65.176C177.815 68.92 176.663 72.76 175.895 76.696C175.223 80.632 174.887 84.04 174.887 86.92C174.887 90.664 175.751 93.688 177.479 95.992C179.303 98.2 181.703 99.304 184.679 99.304ZM227.84 149.56C222.944 149.56 218.864 148.984 215.6 147.832V130.84C218.48 131.8 221.168 132.28 223.664 132.28C226.544 132.28 229.04 131.32 231.152 129.4C233.36 127.48 234.896 124.456 235.76 120.328L250.16 52.504H238.64L240.8 42.28L253.616 36.376L254.912 30.472C257.024 20.968 260.432 14.344 265.136 10.6C269.936 6.75999 276.176 4.83999 283.856 4.83999C287.12 4.83999 290.096 5.17599 292.784 5.848C295.568 6.424 298.112 7.23999 300.416 8.29599L294.8 23.992C293.456 23.416 292.016 22.936 290.48 22.552C289.04 22.072 287.36 21.832 285.44 21.832C282.752 21.832 280.592 22.792 278.96 24.712C277.328 26.536 276.224 28.984 275.648 32.056L274.784 36.376H290.192L286.736 52.504H271.328L256.208 123.496C255.248 128.296 253.664 132.664 251.456 136.6C249.248 140.536 246.224 143.656 242.384 145.96C238.64 148.36 233.792 149.56 227.84 149.56ZM312.519 116.44C305.799 116.44 300.759 114.424 297.399 110.392C294.135 106.264 292.503 100.744 292.503 93.832C292.503 92.104 292.647 89.896 292.935 87.208C293.223 84.424 293.655 81.64 294.231 78.856L303.159 36.376H324.327L314.679 82.312C313.911 85.672 313.527 88.456 313.527 90.664C313.527 96.424 316.071 99.304 321.159 99.304C324.423 99.304 327.303 97.96 329.799 95.272C332.391 92.488 334.647 88.792 336.567 84.184C338.487 79.576 340.023 74.488 341.175 68.92L348.087 36.376H369.255L352.551 115H336.423L337.863 100.456H337.143C334.167 105.16 330.663 109 326.631 111.976C322.695 114.952 317.991 116.44 312.519 116.44ZM374.225 115L390.929 36.376H407.057L405.617 50.92H406.193C409.265 46.216 412.769 42.376 416.705 39.4C420.737 36.424 425.489 34.936 430.961 34.936C437.777 34.936 442.865 37 446.225 41.128C449.585 45.16 451.265 50.632 451.265 57.544C451.265 61 450.737 65.224 449.681 70.216L440.321 115H419.153L428.801 69.064C429.569 65.704 429.953 62.92 429.953 60.712C429.953 54.952 427.409 52.072 422.321 52.072C419.153 52.072 416.273 53.464 413.681 56.248C411.089 58.936 408.833 62.584 406.913 67.192C405.089 71.8 403.553 76.888 402.305 82.456L395.393 115H374.225ZM487.051 116.44C483.307 116.44 479.707 115.528 476.251 113.704C472.891 111.784 470.155 108.76 468.043 104.632C465.931 100.408 464.875 94.792 464.875 87.784C464.875 81.448 465.739 75.16 467.467 68.92C469.195 62.584 471.643 56.872 474.811 51.784C477.979 46.696 481.771 42.616 486.187 39.544C490.699 36.472 495.739 34.936 501.307 34.936C506.011 34.936 509.707 36.04 512.395 38.248C515.083 40.456 517.339 43.192 519.163 46.456H519.739C519.739 46.168 519.787 45.16 519.883 43.432C520.075 41.608 520.315 39.544 520.603 37.24C520.891 34.84 521.227 32.68 521.611 30.76L526.939 5.55999H548.107L524.923 115H508.795L510.091 104.776H509.515C506.731 108.232 503.563 111.064 500.011 113.272C496.459 115.384 492.139 116.44 487.051 116.44ZM495.979 99.304C499.339 99.304 502.171 98.056 504.475 95.56C506.875 92.968 508.795 89.8 510.235 86.056C511.771 82.216 512.875 78.376 513.547 74.536C514.315 70.6 514.699 67.24 514.699 64.456C514.699 60.712 513.835 57.736 512.107 55.528C510.379 53.224 507.979 52.072 504.907 52.072C502.315 52.072 499.867 53.128 497.563 55.24C495.355 57.256 493.387 59.944 491.659 63.304C490.027 66.664 488.731 70.408 487.771 74.536C486.811 78.664 486.331 82.792 486.331 86.92C486.331 95.176 489.547 99.304 495.979 99.304ZM569.239 116.44C564.247 116.44 559.879 116.056 556.135 115.288C552.391 114.616 548.887 113.464 545.623 111.832V94.408C549.175 96.424 552.823 98.008 556.567 99.16C560.311 100.216 564.151 100.744 568.087 100.744C571.447 100.744 574.423 100.072 577.015 98.728C579.607 97.288 580.903 95.128 580.903 92.248C580.903 90.328 580.135 88.6 578.599 87.064C577.063 85.528 573.895 83.416 569.095 80.728C564.199 77.944 560.407 75.064 557.719 72.088C555.127 69.016 553.831 64.984 553.831 59.992C553.831 51.832 556.471 45.64 561.751 41.416C567.127 37.096 574.471 34.936 583.783 34.936C588.295 34.936 592.663 35.464 596.887 36.52C601.111 37.48 605.239 39.16 609.271 41.56L602.359 56.68C599.575 55.048 596.599 53.656 593.431 52.504C590.359 51.352 587.287 50.776 584.215 50.776C581.911 50.776 579.847 51.352 578.023 52.504C576.199 53.56 575.287 55.192 575.287 57.4C575.287 59.224 576.055 60.856 577.591 62.296C579.127 63.64 581.911 65.368 585.943 67.48C590.743 69.88 594.679 72.76 597.751 76.12C600.823 79.384 602.359 83.704 602.359 89.08C602.359 98.104 599.335 104.92 593.287 109.528C587.335 114.136 579.319 116.44 569.239 116.44Z" fill="white"/>
</g>
<defs>
<filter id="filter0_dd" x="0.706421" y="0.839996" width="617.565" height="156.72" filterUnits="userSpaceOnUse" color-interpolation-filters="sRGB">
<feFlood flood-opacity="0" result="BackgroundImageFix"/>
<feColorMatrix in="SourceAlpha" type="matrix" values="0 0 0 0 0 0 0 0 0 0 0 0 0 0 0 0 0 0 127 0"/>
<feOffset dx="5"/>
<feGaussianBlur stdDeviation="2"/>
<feColorMatrix type="matrix" values="0 0 0 0 0.282353 0 0 0 0 0.662745 0 0 0 0 1 0 0 0 1 0"/>
<feBlend mode="normal" in2="BackgroundImageFix" result="effect1_dropShadow"/>
<feColorMatrix in="SourceAlpha" type="matrix" values="0 0 0 0 0 0 0 0 0 0 0 0 0 0 0 0 0 0 127 0"/>
<feOffset dx="-2" dy="4"/>
<feGaussianBlur stdDeviation="2"/>
<feColorMatrix type="matrix" values="0 0 0 0 0 0 0 0 0 0 0 0 0 0 0 0 0 0 0.25 0"/>
<feBlend mode="normal" in2="effect1_dropShadow" result="effect2_dropShadow"/>
<feBlend mode="normal" in="SourceGraphic" in2="effect2_dropShadow" result="shape"/>
</filter>
</defs>
</svg>
